<!-- icons.svg -->
<svg xmlns="http://www.w3.org/2000/svg" style="display: none;">
    <!-- Edit Icon -->
    <symbol id="edit-icon" viewBox="0 0 20 20">
        <path d="M12.22,2.52,14.39,4.7,5.51,13.58,3.33,13.63Zm-.75.75L4.58,12.33l1.58,1.58,5.35-5.35Zm.67,5.45,1.13-1.13,1.49,1.49L13.63,9.71Z"/>
    </symbol>
    <!-- Delete Icon -->
    <symbol id="delete-icon" viewBox="0 0 20 20">
        <path d="M16.48,2.52,14.3,4.7l-3.46,3.46L7.38,4.7,5.2,2.52l3.46-3.46L10.85,0l2.18,2.18,3.46,3.46L16.48,5.2ZM12,13.7,8.53,10.22,5.07,13.68l1.42,1.42L12,15.14l3.46,3.46,1.42-1.42L12,13.7Z"/>
    </symbol>
</svg>
