<svg version="1.1" id="Layer_1" xmlns="http://www.w3.org/2000/svg" xmlns:xlink="http://www.w3.org/1999/xlink" x="0px" y="0px"
	 width="100%" viewBox="0 0 1000 1000" enable-background="new 0 0 1000 1000" xml:space="preserve">
<path fill="#FFFFFF" opacity="1.000000" stroke="none" 
	d="
M1.000003,842.000000 
	C1.000000,614.973145 1.000000,387.946259 1.358593,160.760132 
	C2.806958,156.285233 4.094872,152.008682 4.954808,147.647736 
	C11.208004,115.936333 25.657379,88.189095 46.713112,64.030289 
	C58.868790,50.083176 72.922180,38.082542 88.950859,28.386423 
	C110.405266,15.408153 133.196716,6.528811 158.033859,2.926637 
	C158.766968,2.820313 159.348038,1.665796 160.000000,0.999999 
	C387.026855,1.000000 614.053711,1.000000 841.239868,1.358613 
	C845.714783,2.806984 849.991394,4.094847 854.352295,4.954792 
	C886.063660,11.208048 913.810974,25.657320 937.969666,46.713150 
	C951.916748,58.868855 963.917480,72.922165 973.613586,88.950851 
	C986.591858,110.405266 995.471191,133.196701 999.073364,158.033844 
	C999.179688,158.766953 1000.334167,159.348038 1001.000000,160.000000 
	C1001.000000,387.026855 1001.000000,614.053711 1000.641418,841.239868 
	C999.193054,845.714783 997.905090,849.991272 997.045166,854.352173 
	C990.792175,886.063721 976.342590,913.810913 955.286743,937.969666 
	C943.131104,951.916687 929.077820,963.917419 913.049133,973.613586 
	C891.594666,986.591797 868.803223,995.470947 843.966187,999.073364 
	C843.233032,999.179688 842.651978,1000.334229 842.000000,1001.000000 
	C614.973145,1001.000000 387.946259,1001.000000 160.760132,1000.641418 
	C156.285217,999.193054 152.008667,997.905151 147.647736,997.045166 
	C115.936256,990.792114 88.189034,976.342590 64.030251,955.286865 
	C50.083187,943.131226 38.082520,929.077820 28.386417,913.049133 
	C15.408159,891.594727 6.528864,868.803284 2.926652,843.966125 
	C2.820331,843.233032 1.665804,842.651978 1.000003,842.000000 
M362.960388,276.002411 
	C362.975922,237.338058 363.005981,198.673706 362.995728,160.009354 
	C362.993469,151.512100 362.947174,143.011871 362.690125,134.520004 
	C362.633942,132.664764 361.589569,130.839447 361.025940,128.181610 
	C357.945801,115.882675 351.887268,105.879532 341.460358,97.967896 
	C326.995880,86.992722 311.319000,83.997231 294.604797,89.549530 
	C275.518738,95.889755 258.334259,114.367638 258.278046,137.939651 
	C258.049469,139.860626 257.626373,141.781021 257.620819,143.702637 
	C257.486023,190.350540 257.331726,236.998535 257.310699,283.646576 
	C257.266174,382.445587 257.293396,481.244629 257.308777,580.043640 
	C257.309082,581.888367 257.527466,583.733093 257.644073,585.577820 
	C258.089600,585.550110 258.535095,585.522339 258.980621,585.494629 
	C258.980621,580.529785 258.375702,575.474121 259.105225,570.618896 
	C260.674835,560.172546 262.848145,549.812622 264.937103,539.450134 
	C266.251495,532.929749 267.320099,526.283875 269.461182,520.023376 
	C272.887604,510.004639 276.553528,499.989960 281.135956,490.463104 
	C287.536896,477.155548 293.879974,463.634918 302.042450,451.403046 
	C314.447418,432.813507 329.096619,415.866760 346.035614,401.091949 
	C351.501221,396.324677 357.106537,391.717560 362.949768,386.133820 
	C362.912262,349.730072 362.874725,313.326355 362.960388,276.002411 
M460.084320,401.230103 
	C461.792267,405.366486 463.036896,409.776489 465.289703,413.591064 
	C474.232239,428.733032 487.398682,437.635284 505.136536,439.092255 
	C509.563354,439.455841 514.054138,438.975555 518.497253,439.218292 
	C530.774902,439.889008 543.057129,440.598419 554.843628,444.651306 
	C564.386597,447.932770 574.164795,450.628143 583.473816,454.467987 
	C596.181702,459.709778 607.355042,467.518463 618.039673,476.254852 
	C630.397400,486.359161 640.777588,498.005402 649.215088,511.437683 
	C657.169250,524.100525 664.087585,537.293884 667.306519,552.053894 
	C669.450256,561.883545 672.223267,571.730591 672.898682,581.692993 
	C674.226257,601.273926 674.172729,620.920776 667.162842,639.783691 
	C664.089600,648.053589 661.903015,656.744019 658.013794,664.599792 
	C651.143494,678.476807 642.297546,691.087402 631.282776,702.197327 
	C619.880249,713.698364 608.137695,724.579651 593.493408,731.934204 
	C582.474426,737.468140 571.473877,742.976685 559.229309,745.323608 
	C549.167297,747.252197 539.162903,750.014526 529.008423,750.802734 
	C513.866638,751.978149 498.798340,750.566223 483.786957,747.374084 
	C470.877197,744.628967 458.936127,739.782898 447.216156,734.138550 
	C433.512329,727.538879 420.238037,720.180176 403.924072,724.767883 
	C396.245544,726.927124 389.057251,729.588135 382.866882,734.555908 
	C364.471954,749.317810 358.850891,768.267639 364.883820,790.830139 
	C368.455811,804.189026 376.830902,814.216553 388.640228,820.709900 
	C412.172607,833.649353 436.544586,844.802368 463.352753,849.191772 
	C477.401428,851.492065 491.511108,854.074341 505.681030,854.789673 
	C519.001831,855.462097 532.494873,854.411743 545.806946,853.073242 
	C558.115967,851.835571 570.476501,849.977966 582.465332,846.992065 
	C595.687134,843.699097 608.932983,839.788330 621.418762,834.407349 
	C645.549561,824.007690 667.684326,809.950867 687.572266,792.749451 
	C701.778687,780.462097 714.433838,766.656189 725.778503,751.523499 
	C744.705139,726.277039 759.421143,699.083679 767.177979,668.407532 
	C770.716980,654.411560 774.654907,640.373169 776.399597,626.108032 
	C778.068176,612.464233 777.221497,598.501892 777.307922,584.678406 
	C777.408997,568.502869 775.230530,552.600281 771.115234,536.958191 
	C768.934387,528.668396 767.571411,520.062927 764.461060,512.141113 
	C759.334473,499.084106 753.412170,486.308685 747.248718,473.696259 
	C734.908936,448.444641 717.441711,426.999725 697.253845,407.610596 
	C681.085938,392.082397 663.363342,378.952332 643.572144,368.179810 
	C618.032776,354.278595 591.086365,344.811798 562.720154,339.379120 
	C550.800049,337.096191 538.553650,336.161255 526.408142,335.538849 
	C518.578613,335.137573 510.555084,335.795959 502.818756,337.135712 
	C496.260223,338.271545 489.430267,340.080231 483.703369,343.325623 
	C470.596527,350.753082 462.361115,362.639771 459.470093,377.268036 
	C457.986511,384.774689 459.354126,392.844910 460.084320,401.230103 
z"/>
<path fill="#000000" opacity="1.000000" stroke="none" 
	d="
M159.531342,0.999999 
	C159.348038,1.665796 158.766968,2.820313 158.033859,2.926637 
	C133.196716,6.528811 110.405266,15.408153 88.950859,28.386423 
	C72.922180,38.082542 58.868790,50.083176 46.713112,64.030289 
	C25.657379,88.189095 11.208004,115.936333 4.954808,147.647736 
	C4.094872,152.008682 2.806958,156.285233 1.358593,160.300415 
	C1.000000,107.072990 1.000000,54.145981 1.000000,1.000000 
	C53.687359,1.000000 106.375023,1.000000 159.531342,0.999999 
z"/>
<path fill="#000000" opacity="1.000000" stroke="none" 
	d="
M1001.000000,159.531342 
	C1000.334167,159.348038 999.179688,158.766953 999.073364,158.033844 
	C995.471191,133.196701 986.591858,110.405266 973.613586,88.950851 
	C963.917480,72.922165 951.916748,58.868855 937.969666,46.713150 
	C913.810974,25.657320 886.063660,11.208048 854.352295,4.954792 
	C849.991394,4.094847 845.714783,2.806984 841.699585,1.358613 
	C894.927002,1.000000 947.854004,1.000000 1001.000000,1.000000 
	C1001.000000,53.687359 1001.000000,106.375023 1001.000000,159.531342 
z"/>
<path fill="#000000" opacity="1.000000" stroke="none" 
	d="
M1.000003,842.468628 
	C1.665804,842.651978 2.820331,843.233032 2.926652,843.966125 
	C6.528864,868.803284 15.408159,891.594727 28.386417,913.049133 
	C38.082520,929.077820 50.083187,943.131226 64.030251,955.286865 
	C88.189034,976.342590 115.936256,990.792114 147.647736,997.045166 
	C152.008667,997.905151 156.285217,999.193054 160.300415,1000.641418 
	C107.073006,1001.000000 54.146004,1001.000000 1.000000,1001.000000 
	C1.000000,948.312622 1.000000,895.625000 1.000003,842.468628 
z"/>
<path fill="#000000" opacity="1.000000" stroke="none" 
	d="
M842.468689,1001.000000 
	C842.651978,1000.334229 843.233032,999.179688 843.966187,999.073364 
	C868.803223,995.470947 891.594666,986.591797 913.049133,973.613586 
	C929.077820,963.917419 943.131104,951.916687 955.286743,937.969666 
	C976.342590,913.810913 990.792175,886.063721 997.045166,854.352173 
	C997.905090,849.991272 999.193054,845.714783 1000.641418,841.699585 
	C1001.000000,894.927002 1001.000000,947.854004 1001.000000,1001.000000 
	C948.312622,1001.000000 895.625000,1001.000000 842.468689,1001.000000 
z"/>
<path fill="#08C18A" opacity="1.000000" stroke="none" 
	d="
M459.758789,400.945251 
	C459.354126,392.844910 457.986511,384.774689 459.470093,377.268036 
	C462.361115,362.639771 470.596527,350.753082 483.703369,343.325623 
	C489.430267,340.080231 496.260223,338.271545 502.818756,337.135712 
	C510.555084,335.795959 518.578613,335.137573 526.408142,335.538849 
	C538.553650,336.161255 550.800049,337.096191 562.720154,339.379120 
	C591.086365,344.811798 618.032776,354.278595 643.572144,368.179810 
	C663.363342,378.952332 681.085938,392.082397 697.253845,407.610596 
	C717.441711,426.999725 734.908936,448.444641 747.248718,473.696259 
	C753.412170,486.308685 759.334473,499.084106 764.461060,512.141113 
	C767.571411,520.062927 768.934387,528.668396 771.115234,536.958191 
	C775.230530,552.600281 777.408997,568.502869 777.307922,584.678406 
	C777.221497,598.501892 778.068176,612.464233 776.399597,626.108032 
	C774.654907,640.373169 770.716980,654.411560 767.177979,668.407532 
	C759.421143,699.083679 744.705139,726.277039 725.778503,751.523499 
	C714.433838,766.656189 701.778687,780.462097 687.572266,792.749451 
	C667.684326,809.950867 645.549561,824.007690 621.418762,834.407349 
	C608.932983,839.788330 595.687134,843.699097 582.465332,846.992065 
	C570.476501,849.977966 558.115967,851.835571 545.806946,853.073242 
	C532.494873,854.411743 519.001831,855.462097 505.681030,854.789673 
	C491.511108,854.074341 477.401428,851.492065 463.352753,849.191772 
	C436.544586,844.802368 412.172607,833.649353 388.640228,820.709900 
	C376.830902,814.216553 368.455811,804.189026 364.883820,790.830139 
	C358.850891,768.267639 364.471954,749.317810 382.866882,734.555908 
	C389.057251,729.588135 396.245544,726.927124 403.924072,724.767883 
	C420.238037,720.180176 433.512329,727.538879 447.216156,734.138550 
	C458.936127,739.782898 470.877197,744.628967 483.786957,747.374084 
	C498.798340,750.566223 513.866638,751.978149 529.008423,750.802734 
	C539.162903,750.014526 549.167297,747.252197 559.229309,745.323608 
	C571.473877,742.976685 582.474426,737.468140 593.493408,731.934204 
	C608.137695,724.579651 619.880249,713.698364 631.282776,702.197327 
	C642.297546,691.087402 651.143494,678.476807 658.013794,664.599792 
	C661.903015,656.744019 664.089600,648.053589 667.162842,639.783691 
	C674.172729,620.920776 674.226257,601.273926 672.898682,581.692993 
	C672.223267,571.730591 669.450256,561.883545 667.306519,552.053894 
	C664.087585,537.293884 657.169250,524.100525 649.215088,511.437683 
	C640.777588,498.005402 630.397400,486.359161 618.039673,476.254852 
	C607.355042,467.518463 596.181702,459.709778 583.473816,454.467987 
	C574.164795,450.628143 564.386597,447.932770 554.843628,444.651306 
	C543.057129,440.598419 530.774902,439.889008 518.497253,439.218292 
	C514.054138,438.975555 509.563354,439.455841 505.136536,439.092255 
	C487.398682,437.635284 474.232239,428.733032 465.289703,413.591064 
	C463.036896,409.776489 461.792267,405.366486 459.758789,400.945251 
z"/>
<path fill="#0BC18A" opacity="1.000000" stroke="none" 
	d="
M362.647919,387.037170 
	C357.106537,391.717560 351.501221,396.324677 346.035614,401.091949 
	C329.096619,415.866760 314.447418,432.813507 302.042450,451.403046 
	C293.879974,463.634918 287.536896,477.155548 281.135956,490.463104 
	C276.553528,499.989960 272.887604,510.004639 269.461182,520.023376 
	C267.320099,526.283875 266.251495,532.929749 264.937103,539.450134 
	C262.848145,549.812622 260.674835,560.172546 259.105225,570.618896 
	C258.375702,575.474121 258.980621,580.529785 258.980621,585.494629 
	C258.535095,585.522339 258.089600,585.550110 257.644073,585.577820 
	C257.527466,583.733093 257.309082,581.888367 257.308777,580.043640 
	C257.293396,481.244629 257.266174,382.445587 257.310699,283.646576 
	C257.331726,236.998535 257.486023,190.350540 257.620819,143.702637 
	C257.626373,141.781021 258.049469,139.860626 258.652710,138.208771 
	C259.027344,181.833450 259.027344,225.188995 259.027344,268.544556 
	C259.443542,268.546387 259.859772,268.548187 260.275970,268.550018 
	C263.905457,255.340958 271.427063,244.969040 282.972473,237.593903 
	C295.589661,229.534164 309.385529,227.686829 323.641968,231.313797 
	C336.459839,234.574783 346.584106,242.342514 353.960205,253.284561 
	C356.342010,256.817871 357.510803,261.168884 359.176636,265.521118 
	C359.783691,269.541351 360.448578,273.186218 361.066162,277.313965 
	C361.013000,312.658844 360.985992,347.520935 361.071106,382.382721 
	C361.074890,383.935486 362.099060,385.485748 362.647919,387.037170 
z"/>
<path fill="#0E242A" opacity="1.000000" stroke="none" 
	d="
M359.234497,265.145813 
	C357.510803,261.168884 356.342010,256.817871 353.960205,253.284561 
	C346.584106,242.342514 336.459839,234.574783 323.641968,231.313797 
	C309.385529,227.686829 295.589661,229.534164 282.972473,237.593903 
	C271.427063,244.969040 263.905457,255.340958 260.275970,268.550018 
	C259.859772,268.548187 259.443542,268.546387 259.027344,268.544556 
	C259.027344,225.188995 259.027344,181.833450 258.938660,138.102386 
	C258.334259,114.367638 275.518738,95.889755 294.604797,89.549530 
	C311.319000,83.997231 326.995880,86.992722 341.460358,97.967896 
	C351.887268,105.879532 357.945801,115.882675 360.914490,129.051331 
	C360.872681,173.137527 360.964478,216.354019 360.936340,259.570404 
	C360.935150,261.429260 359.826996,263.287354 359.234497,265.145813 
z"/>
<path fill="#4B6063" opacity="1.000000" stroke="none" 
	d="
M359.176636,265.521118 
	C359.826996,263.287354 360.935150,261.429260 360.936340,259.570404 
	C360.964478,216.354019 360.872681,173.137527 360.901672,129.460693 
	C361.589569,130.839447 362.633942,132.664764 362.690125,134.520004 
	C362.947174,143.011871 362.993469,151.512100 362.995728,160.009354 
	C363.005981,198.673706 362.975922,237.338058 362.609924,276.472290 
	C361.877441,276.905151 361.495483,276.868134 361.113495,276.831116 
	C360.448578,273.186218 359.783691,269.541351 359.176636,265.521118 
z"/>
<path fill="#1AA780" opacity="1.000000" stroke="none" 
	d="
M361.066162,277.313965 
	C361.495483,276.868134 361.877441,276.905151 362.548340,276.932373 
	C362.874725,313.326355 362.912262,349.730072 362.798828,386.585510 
	C362.099060,385.485748 361.074890,383.935486 361.071106,382.382721 
	C360.985992,347.520935 361.013000,312.658844 361.066162,277.313965 
z"/>
</svg>